HIERARCHY
ROOT Hips
{
	OFFSET 0.000000 89.005402 0.000000
	CHANNELS 6 Xposition Yposition Zposition Xrotation Yrotation Zrotation
	JOINT Spine
	{
		OFFSET 0.116900 10.681000 0.373400
		CHANNELS 3 Xrotation Yrotation Zrotation
		JOINT Spine1
		{
			OFFSET 0.000000 13.840401 0.053500
			CHANNELS 3 Xrotation Yrotation Zrotation
			JOINT Spine2
			{
				OFFSET 0.000000 14.712700 -0.366200
				CHANNELS 3 Xrotation Yrotation Zrotation
				JOINT Neck
				{
					OFFSET 0.000000 35.415497 -3.314200
					CHANNELS 3 Xrotation Yrotation Zrotation
					JOINT Head
					{
						OFFSET 0.000000 16.899200 1.218300
						CHANNELS 3 Xrotation Yrotation Zrotation
						JOINT HeadTop_End
						{
							OFFSET 0.000000 22.206207 2.192500
							CHANNELS 3 Xrotation Yrotation Zrotation
							End Site
							{
								OFFSET 0.000000 22.314178 0.000000
							}
						}
					}
				}
				JOINT LeftShoulder
				{
					OFFSET 12.896400 26.716293 -4.548400
					CHANNELS 3 Xrotation Yrotation Zrotation
					JOINT LeftArm
					{
						OFFSET 19.027000 -4.857010 -1.718400
						CHANNELS 3 Xrotation Yrotation Zrotation
						JOINT LeftForeArm
						{
							OFFSET 24.179897 0.000000 0.000000
							CHANNELS 3 Xrotation Yrotation Zrotation
							JOINT LeftHand
							{
								OFFSET 27.156403 0.000000 0.000000
								CHANNELS 3 Xrotation Yrotation Zrotation
								JOINT LeftHandIndex1
								{
									OFFSET 16.441200 0.000000 0.000000
									CHANNELS 3 Xrotation Yrotation Zrotation
									JOINT LeftHandIndex2
									{
										OFFSET 4.821899 0.000000 0.000000
										CHANNELS 3 Xrotation Yrotation Zrotation
										JOINT LeftHandIndex3
										{
											OFFSET 6.386497 0.000000 0.000000
											CHANNELS 3 Xrotation Yrotation Zrotation
											JOINT LeftHandIndex4
											{
												OFFSET 5.188988 0.000000 0.000000
												CHANNELS 3 Xrotation Yrotation Zrotation
												End Site
												{
													OFFSET -0.178703 5.185913 0.000177
												}
											}
										}
									}
								}
								JOINT LeftHandThumb1
								{
									OFFSET 6.534897 -5.032593 5.900300
									CHANNELS 3 Xrotation Yrotation Zrotation
									JOINT LeftHandThumb2
									{
										OFFSET 3.818176 -2.204422 2.204423
										CHANNELS 3 Xrotation Yrotation Zrotation
										JOINT LeftHandThumb3
										{
											OFFSET 3.252098 -1.877594 1.877601
											CHANNELS 3 Xrotation Yrotation Zrotation
											JOINT LeftHandThumb4
											{
												OFFSET 5.251778 -3.032120 3.032117
												CHANNELS 3 Xrotation Yrotation Zrotation
												End Site
												{
													OFFSET 0.000023 6.780014 0.000000
												}
											}
										}
									}
								}
							}
						}
					}
				}
				JOINT RightShoulder
				{
					OFFSET -12.896300 26.716293 -4.548400
					CHANNELS 3 Xrotation Yrotation Zrotation
					JOINT RightArm
					{
						OFFSET -19.027000 -4.857010 -1.718400
						CHANNELS 3 Xrotation Yrotation Zrotation
						JOINT RightForeArm
						{
							OFFSET -24.179897 0.000000 0.000000
							CHANNELS 3 Xrotation Yrotation Zrotation
							JOINT RightHand
							{
								OFFSET -27.156403 0.000000 0.000000
								CHANNELS 3 Xrotation Yrotation Zrotation
								JOINT RightHandThumb1
								{
									OFFSET -6.591202 -4.852203 5.988100
									CHANNELS 3 Xrotation Yrotation Zrotation
									JOINT RightHandThumb2
									{
										OFFSET -3.818176 -2.204422 2.204423
										CHANNELS 3 Xrotation Yrotation Zrotation
										JOINT RightHandThumb3
										{
											OFFSET -3.252098 -1.877594 1.877601
											CHANNELS 3 Xrotation Yrotation Zrotation
											JOINT RightHandThumb4
											{
												OFFSET -5.251778 -3.032120 3.032117
												CHANNELS 3 Xrotation Yrotation Zrotation
												End Site
												{
													OFFSET -0.000023 6.780014 0.000000
												}
											}
										}
									}
								}
								JOINT RightHandIndex1
								{
									OFFSET -16.029404 0.000000 0.000000
									CHANNELS 3 Xrotation Yrotation Zrotation
									JOINT RightHandIndex2
									{
										OFFSET -5.213303 0.000000 0.000000
										CHANNELS 3 Xrotation Yrotation Zrotation
										JOINT RightHandIndex3
										{
											OFFSET -6.386528 0.000000 0.000000
											CHANNELS 3 Xrotation Yrotation Zrotation
											JOINT RightHandIndex4
											{
												OFFSET -5.189026 0.000000 0.000000
												CHANNELS 3 Xrotation Yrotation Zrotation
												End Site
												{
													OFFSET 0.236702 5.183624 0.001972
												}
											}
										}
									}
								}
							}
						}
					}
				}
			}
		}
	}
	JOINT LeftUpLeg
	{
		OFFSET 14.073000 -7.904099 -1.463000
		CHANNELS 3 Xrotation Yrotation Zrotation
		JOINT LeftLeg
		{
			OFFSET -0.109806 -34.073280 4.093200
			CHANNELS 3 Xrotation Yrotation Zrotation
			JOINT LeftFoot
			{
				OFFSET 0.109806 -29.899420 -6.319000
				CHANNELS 3 Xrotation Yrotation Zrotation
				JOINT LeftToeBase
				{
					OFFSET 1.551100 -14.988700 20.535801
					CHANNELS 3 Xrotation Yrotation Zrotation
					JOINT LeftToe_End
					{
						OFFSET 0.221200 0.570800 13.248301
						CHANNELS 3 Xrotation Yrotation Zrotation
						End Site
						{
							OFFSET 0.000000 13.262435 0.000000
						}
					}
				}
			}
		}
	}
	JOINT RightUpLeg
	{
		OFFSET -13.839300 -7.904099 -1.463000
		CHANNELS 3 Xrotation Yrotation Zrotation
		JOINT RightLeg
		{
			OFFSET 0.109694 -34.073219 4.093300
			CHANNELS 3 Xrotation Yrotation Zrotation
			JOINT RightFoot
			{
				OFFSET -0.109694 -29.899384 -6.319200
				CHANNELS 3 Xrotation Yrotation Zrotation
				JOINT RightToeBase
				{
					OFFSET -1.551100 -14.988700 20.535801
					CHANNELS 3 Xrotation Yrotation Zrotation
					JOINT RightToe_End
					{
						OFFSET -0.221200 0.570900 13.248299
						CHANNELS 3 Xrotation Yrotation Zrotation
						End Site
						{
							OFFSET 0.000000 13.262440 0.000000
						}
					}
				}
			}
		}
	}
}
MOTION
Frames: 8
Frame Time: 0.033333
0.093002 50.685303 9.218317 0.145886 0.070726 0.875074 10.430394 0.125021 -1.505946 -0.199272 0.216427 -0.355483 -0.199596 0.248527 -0.300892 -1.001771 -1.276608 0.469465 -8.883412 -4.319392 -5.320497 0.000000 -0.000000 0.000000 0.823521 -15.262025 -7.868748 4.746754 -21.216403 -54.862200 -0.000020 -62.197547 -0.000015 31.062949 4.315274 41.770206 -0.224157 2.792767 -26.913881 0.396831 2.121287 -21.189291 0.083122 0.984446 -9.653141 -0.000000 0.000002 -0.000002 6.610626 1.798227 20.801493 2.716383 20.172581 -24.389176 -5.537244 29.849525 5.070899 0.000001 0.000001 -0.000000 3.171095 -4.378722 8.782890 -3.950254 37.253399 63.733670 -0.000004 55.137928 0.000002 43.537265 4.741024 -36.277949 -9.383498 -1.613344 -17.604708 3.563402 -24.331422 34.658815 -6.607971 -37.497178 -11.176228 0.000001 0.000001 -0.000001 2.952118 1.011175 13.530160 0.472460 -2.045709 26.006743 0.059752 -0.744403 9.177788 0.000001 0.000000 -0.000000 -88.308042 -8.300552 14.585015 82.348353 2.953015 -0.536386 7.633215 -6.784458 -8.239167 -0.103111 0.000005 0.000003 0.000000 0.000000 -0.000000 -89.574004 9.725039 -10.620184 82.902644 -2.605595 -1.086929 8.617131 -0.170501 9.309486 -0.195519 0.000007 0.000002 0.000000 -0.000000 0.000000 
0.086643 50.657906 9.295412 0.270846 0.098644 0.883392 10.538096 0.110913 -1.512779 0.117322 0.217353 -0.407600 -0.022417 0.256674 -0.330248 -0.608620 -1.274647 0.376579 -10.758936 -4.494758 -5.054919 -0.000000 0.000000 -0.000000 1.483756 -14.226187 -5.573878 1.069128 -20.426968 -59.574194 0.000009 -61.355091 0.000006 34.405934 2.995963 41.065078 -0.202169 2.869520 -27.281739 0.403276 2.137805 -21.362745 0.083951 0.989257 -9.700715 0.000001 -0.000002 0.000003 6.452963 1.879065 20.945117 2.637603 20.235373 -24.276316 -5.454168 29.824082 4.818342 0.000002 -0.000001 -0.000002 3.198766 -5.102191 7.675744 -5.994462 37.040153 66.362371 -0.000013 54.665723 0.000018 44.858429 5.503235 -36.428869 -9.351709 -1.600126 -17.560053 3.651737 -24.412455 34.712340 -6.515475 -37.600376 -11.078761 0.000001 0.000000 -0.000001 2.954283 1.012341 13.493643 0.483866 -2.068896 26.324309 0.061125 -0.752844 9.282795 -0.000001 -0.000002 -0.000005 -88.667631 -8.296893 14.432448 82.451223 3.053413 -0.447541 7.943975 -6.681093 -8.038424 -0.152925 0.000010 -0.026063 0.000000 0.000001 0.000000 -89.957812 9.812645 -10.431464 83.299061 -2.676754 -1.218642 8.748854 -0.318547 9.199994 -0.240151 -0.000007 0.000930 0.000000 0.000001 0.000000 
0.076495 50.637543 9.380627 0.322128 0.126950 0.897904 10.755162 0.090090 -1.523689 0.561809 0.226205 -0.458109 0.311176 0.271968 -0.384474 -0.128490 -1.267130 0.274483 -12.595948 -4.648125 -4.744552 -0.000000 0.000000 0.000000 2.105334 -13.032949 -2.969769 -2.448522 -19.928781 -64.159416 -0.000005 -60.572863 -0.000008 37.331171 1.707254 40.857396 -0.175636 2.954804 -27.750131 0.413473 2.163698 -21.634595 0.084705 0.993686 -9.744599 0.000001 0.000000 -0.000000 6.288037 1.960364 21.093332 2.555831 20.298216 -24.159492 -5.357987 29.811129 4.501563 -0.000000 -0.000001 0.000002 3.198643 -5.900648 6.470101 -8.231921 36.790541 69.124212 -0.000020 54.322011 0.000023 46.276045 6.385787 -36.719442 -9.289239 -1.573744 -17.470941 3.821592 -24.562644 34.816387 -6.330137 -37.801173 -10.883408 -0.000001 -0.000002 0.000003 2.952720 1.013275 13.422248 0.506166 -2.113338 26.935563 0.063875 -0.769498 9.489963 0.000002 -0.000002 -0.000001 -89.132364 -8.346127 14.252067 82.634934 3.164839 -0.269900 8.401563 -6.404042 -8.145075 -0.194346 0.000004 0.000001 0.000000 -0.000001 0.000000 -90.430475 9.842899 -10.094608 83.708886 -2.676738 -1.512085 9.247586 -0.645303 9.154625 -0.362476 -0.001748 0.389733 0.000000 -0.000001 0.000000 
0.068898 50.621132 9.460215 0.339977 0.152230 0.911752 11.068837 0.074938 -1.533533 1.150175 0.241930 -0.514970 0.790868 0.295513 -0.461894 0.425492 -1.256187 0.167568 -14.339096 -4.783131 -4.404731 0.000000 0.000000 0.000000 2.644606 -11.707457 -0.109113 -5.808112 -19.746084 -68.588992 -0.000008 -59.897282 -0.000002 39.794933 0.513882 41.107401 -0.144899 3.044789 -28.281530 0.426319 2.195784 -21.972360 0.085447 0.997940 -9.786707 -0.000000 0.000000 0.000000 6.118794 2.041479 21.244226 2.472108 20.360702 -24.040341 -5.254307 29.804849 4.148242 -0.000000 -0.000002 -0.000000 3.163799 -6.760639 5.176095 -10.632075 36.518539 71.973132 -0.000064 54.067077 0.000064 47.708383 7.389174 -37.173841 -9.199251 -1.535608 -17.343250 4.066070 -24.775032 34.966102 -6.061809 -38.086631 -10.599940 -0.000001 0.000002 0.000001 2.946910 1.013563 13.323776 0.539081 -2.176878 27.814895 0.067927 -0.793346 9.786933 0.000001 -0.000003 0.000000 -89.634587 -8.384329 14.006491 82.872195 3.276945 0.002084 8.793907 -5.992724 -8.383242 -0.294181 -0.000002 -0.000003 -0.000000 -0.000001 0.000000 -90.886479 9.776149 -9.626035 84.017242 -2.605538 -1.971252 9.873050 -1.198092 9.216903 -0.343087 -0.010348 0.947489 0.000000 0.000000 -0.000000 
0.070687 50.615837 9.529155 0.383211 0.171045 0.918331 11.434903 0.073864 -1.537753 1.819991 0.261522 -0.576246 1.350171 0.323237 -0.552269 1.022756 -1.245122 0.066546 -15.913217 -4.911711 -4.075077 -0.000000 -0.000000 0.000000 3.059797 -10.315391 2.847924 -8.967111 -19.707582 -72.794155 -0.000006 -59.348354 -0.000009 41.841821 -0.578449 41.682005 -0.112763 3.132330 -28.797082 0.438971 2.226853 -22.300002 0.086199 1.002317 -9.830098 -0.000001 -0.000001 -0.000000 5.950405 2.121571 21.394485 2.388286 20.422187 -23.921783 -5.153092 29.795338 3.807768 -0.000000 0.000003 -0.000000 3.090341 -7.641477 3.832548 -13.143303 36.248278 74.849960 -0.000005 53.791049 0.000000 49.114750 8.455313 -37.743571 -9.097400 -1.492252 -17.199687 4.342428 -25.012043 35.136283 -5.757000 -38.404825 -10.277931 -0.000000 0.000003 -0.000003 2.939230 1.013380 13.215893 0.577332 -2.247808 28.805848 0.072635 -0.820137 10.120991 0.000001 -0.000000 0.000002 -90.107387 -8.384319 13.748945 83.099114 3.334796 0.310279 9.021012 -5.529088 -8.687933 -0.469537 -0.000004 -0.000002 -0.000000 -0.000001 0.000000 -91.203031 9.662842 -9.056675 84.105665 -2.592449 -2.546107 10.376814 -1.886385 9.455953 -0.348288 -0.020153 1.248997 -0.000000 0.000000 0.000000 
0.090327 50.629791 9.574414 0.490533 0.177893 0.912985 11.842383 0.098460 -1.532961 2.547183 0.286203 -0.639089 1.972558 0.355291 -0.653411 1.621071 -1.236236 -0.013578 -17.236510 -5.052843 -3.812318 -0.000000 0.000000 0.000000 3.334354 -8.932674 5.680482 -11.868968 -19.507963 -76.691270 0.000043 -58.875869 0.000051 43.607240 -1.645579 42.369163 -0.082666 3.209124 -29.203136 0.447342 2.247164 -22.514735 0.087018 1.007062 -9.877067 0.000000 -0.000002 0.000002 5.788226 2.199744 21.540678 2.306465 20.482182 -23.806821 -5.065352 29.772009 3.533160 0.000001 0.000001 0.000000 2.980573 -8.486974 2.497494 -15.704372 35.962780 77.715279 -0.000018 53.401452 0.000014 50.565588 9.470742 -38.307082 -9.011268 -1.454828 -17.076629 4.580350 -25.210986 35.282688 -5.495070 -38.672565 -10.003640 0.000000 -0.000001 0.000002 2.932636 1.013636 13.119701 0.610718 -2.307454 29.645907 0.076747 -0.842874 10.404616 0.000000 -0.000001 0.000004 -90.478020 -8.303972 13.565980 83.281425 3.274518 0.569419 8.924845 -5.104553 -8.950095 -0.769273 0.000008 0.000000 -0.000000 -0.000000 -0.000000 -91.245242 9.626294 -8.405435 83.837082 -2.843494 -3.152448 10.534856 -2.497545 9.906224 -0.549132 -0.008733 0.869862 -0.000000 0.000000 -0.000000 
0.130218 50.633820 9.568800 0.679985 0.175164 0.901583 12.254944 0.145859 -1.521890 3.280981 0.313707 -0.702276 2.602934 0.388013 -0.756591 2.163695 -1.230596 -0.061494 -18.231653 -5.225901 -3.664096 -0.000000 0.000000 -0.000000 3.481070 -7.641894 8.182009 -14.371751 -18.912801 -80.164851 0.000018 -58.517427 0.000036 45.206546 -2.748328 42.986526 -0.056613 3.266682 -29.412789 0.447320 2.247098 -22.514033 0.087921 1.012231 -9.928364 -0.000000 0.000003 -0.000003 5.636904 2.275327 21.679601 2.228463 20.540051 -23.698241 -5.001913 29.725571 3.372515 -0.000001 0.000001 0.000001 2.842317 -9.254245 1.219921 -18.145050 35.580054 80.488158 -0.000015 53.022291 0.000010 52.140131 10.339025 -38.785151 -8.965357 -1.433658 -17.006213 4.721033 -25.319286 35.365381 -5.346105 -38.821668 -9.852912 0.000001 -0.000001 -0.000000 2.928238 1.014612 13.053658 0.629645 -2.340363 30.112388 0.079085 -0.855501 10.562570 0.000000 -0.000001 -0.000001 -90.705602 -8.103938 13.521104 83.427011 2.876511 0.728665 8.297796 -4.737350 -9.086625 -1.219084 0.000006 -0.000001 0.000000 0.000000 -0.000000 -91.109300 9.731987 -7.684938 83.201731 -3.228345 -3.728705 10.419692 -2.948589 10.464070 -1.693822 -0.000005 0.000002 0.000000 0.000001 0.000000 
0.176138 50.577087 9.509894 1.050911 0.181058 0.898690 12.636801 0.203624 -1.509574 3.972942 0.336889 -0.763607 3.188178 0.412849 -0.851425 2.561640 -1.229455 -0.077120 -18.843981 -5.441909 -3.645336 0.000000 -0.000000 0.000000 3.538007 -6.589553 10.174456 -16.129408 -17.929206 -82.956274 0.000023 -58.642741 0.000022 46.648642 -3.770389 43.464404 -0.034858 3.294167 -29.325731 0.435398 2.218144 -22.208031 0.088977 1.018250 -9.987880 -0.000000 0.000001 -0.000002 5.503911 2.346971 21.806393 2.157072 20.595320 -23.600139 -4.977829 29.643035 3.394190 0.000001 -0.000003 -0.000003 2.686038 -9.915122 0.037833 -20.014594 35.025965 82.852654 -0.000012 53.126195 0.000022 53.695030 11.028307 -39.249658 -8.965779 -1.433163 -17.002680 4.744233 -25.322757 35.371801 -5.333829 -38.832610 -9.848113 -0.000000 0.000004 -0.000001 2.925054 1.014132 13.041087 0.630667 -2.342153 30.137827 0.079206 -0.856190 10.570771 0.000001 -0.000002 -0.000002 -90.916846 -7.788483 13.583184 83.491502 2.132574 0.795191 7.297062 -4.392597 -9.080059 -1.764961 -0.000004 0.000003 -0.000000 -0.000000 -0.000000 -91.214649 9.867282 -7.012935 82.660315 -3.552290 -4.254996 9.881691 -3.576711 11.053717 -3.677676 -0.000003 -0.000003 -0.000000 -0.000001 -0.000000 
